<svg width="75" height="24" viewBox="0 0 75 24" fill="none" xmlns="http://www.w3.org/2000/svg">
<path d="M35.968 21.4128C35.968 23.1936 34.8592 24 32.8768 24H7.6432C1.7296 24 0.0496001 22.2192 0.0496001 16.4736V4.7472C0.0496001 2.1936 1.5616 0.0768007 4.4848 0.0768007H32.6416C34.5568 0.0768007 35.8 0.815999 35.8 2.5632C35.8 4.2768 34.792 5.016 32.6416 5.016H15.0352C13.1872 5.016 12.28 5.6544 12.28 7.1664C12.28 8.544 13.1872 9.1824 15.0352 9.1824H23.9056C25.8544 9.1824 27.0304 10.1232 27.0304 11.8704C27.0304 13.6176 25.8208 14.4576 23.9392 14.4576H8.8192C7.1728 14.4576 6.2656 15.3984 6.2656 16.608C6.2656 17.8176 7.1056 18.7584 8.8192 18.7584H32.8768C34.8592 18.7584 35.968 19.632 35.968 21.4128ZM74.1492 15.4656C74.1492 17.3808 72.8724 17.9856 71.226 17.9856H61.9524C60.4403 17.9856 59.0292 18.3888 57.954 19.5312L55.1987 22.4544C54.0564 23.6976 53.0819 24 51.2339 24H43.842C40.4819 24 38.7684 22.2864 38.7684 18.288V6.192C38.7684 1.9248 40.8515 0.0768007 45.0515 0.0768007H71.1588C72.9059 0.0768007 74.1492 0.9168 74.1492 2.6304C74.1492 4.344 72.9059 5.352 71.1588 5.352H48.6803C46.53 5.352 44.7491 6.5616 44.7491 9.0144C44.7491 11.4672 46.53 12.744 48.6803 12.744H71.226C72.8724 12.744 74.1492 13.4832 74.1492 15.4656Z" fill="#13315C"/>
</svg>
