<svg width="107" height="35" viewBox="0 0 107 35" fill="none" xmlns="http://www.w3.org/2000/svg">
<path d="M52.24 31.304C52.24 33.848 50.656 35 47.824 35H11.776C3.328 35 0.928 32.456 0.928 24.248V7.496C0.928 3.848 3.088 0.823999 7.264 0.823999H47.488C50.224 0.823999 52 1.88 52 4.376C52 6.824 50.56 7.88 47.488 7.88H22.336C19.696 7.88 18.4 8.792 18.4 10.952C18.4 12.92 19.696 13.832 22.336 13.832H35.008C37.792 13.832 39.472 15.176 39.472 17.672C39.472 20.168 37.744 21.368 35.056 21.368H13.456C11.104 21.368 9.808 22.712 9.808 24.44C9.808 26.168 11.008 27.512 13.456 27.512H47.824C50.656 27.512 52.24 28.76 52.24 31.304ZM106.785 22.808C106.785 25.544 104.961 26.408 102.609 26.408H89.3605C87.2005 26.408 85.1845 26.984 83.6485 28.616L79.7125 32.792C78.0805 34.568 76.6885 35 74.0485 35H63.4885C58.6885 35 56.2405 32.552 56.2405 26.84V9.56C56.2405 3.464 59.2165 0.823999 65.2165 0.823999H102.513C105.009 0.823999 106.785 2.024 106.785 4.472C106.785 6.92 105.009 8.36 102.513 8.36H70.4005C67.3285 8.36 64.7845 10.088 64.7845 13.592C64.7845 17.096 67.3285 18.92 70.4005 18.92H102.609C104.961 18.92 106.785 19.976 106.785 22.808Z" fill="#4D88DB"/>
</svg>
