<svg width="283" height="282" viewBox="0 0 283 282" fill="none" xmlns="http://www.w3.org/2000/svg">
<path d="M26.5312 35.25C11.8838 35.25 0 47.0918 0 61.6875C0 70.0043 3.92441 77.8254 10.6125 82.8375L130.888 172.725C137.189 177.407 145.811 177.407 152.113 172.725L272.387 82.8375C279.076 77.8254 283 70.0043 283 61.6875C283 47.0918 271.116 35.25 256.469 35.25H26.5312ZM0 96.9375V211.5C0 230.943 15.8635 246.75 35.375 246.75H247.625C267.137 246.75 283 230.943 283 211.5V96.9375L162.725 186.825C150.123 196.243 132.877 196.243 120.275 186.825L0 96.9375Z" fill="#13315C"/>
</svg>
