<svg width="247" height="283" viewBox="0 0 247 283" fill="none" xmlns="http://www.w3.org/2000/svg">
<path d="M229.357 17.6875H17.5877C7.88415 17.6875 0 25.7022 0 35.5408V247.459C0 257.298 7.88415 265.312 17.5877 265.312H229.357C239.061 265.312 247 257.298 247 247.459V35.5408C247 25.7022 239.061 17.6875 229.357 17.6875ZM74.6513 229.938H38.0424V111.763H74.7065V229.938H74.6513ZM56.3469 95.623C44.6033 95.623 35.1203 86.0607 35.1203 74.3428C35.1203 62.6248 44.6033 53.0625 56.3469 53.0625C68.0353 53.0625 77.5734 62.6248 77.5734 74.3428C77.5734 86.116 68.0904 95.623 56.3469 95.623ZM211.88 229.938H175.271V172.453C175.271 158.745 174.995 141.113 156.25 141.113C137.173 141.113 134.251 156.037 134.251 171.458V229.938H97.6422V111.763H132.762V127.903H133.259C138.166 118.617 150.13 108.833 167.938 108.833C204.988 108.833 211.88 133.32 211.88 165.157V229.938Z" fill="#13315C"/>
</svg>
