<svg width="283" height="283" viewBox="0 0 283 283" fill="none" xmlns="http://www.w3.org/2000/svg">
<g clip-path="url(#clip0_45_2)">
<path d="M91.1459 13.5973C86.8898 3.31642 75.6693 -2.15565 64.9463 0.77384L16.3057 14.0395C6.68809 16.6926 0 25.4258 0 35.375C0 172.121 110.879 283 247.625 283C257.574 283 266.307 276.312 268.961 266.694L282.226 218.054C285.156 207.331 279.684 196.11 269.403 191.854L216.34 169.745C207.331 165.986 196.884 168.584 190.749 176.156L168.418 203.406C129.506 185 97.9998 153.494 79.5938 114.582L106.844 92.3067C114.416 86.116 117.014 75.7246 113.255 66.715L91.1459 13.6526V13.5973Z" fill="#13315C"/>
</g>
<defs>
<clipPath id="clip0_45_2">
<rect width="283" height="283" fill="white"/>
</clipPath>
</defs>
</svg>
